<svg width="20" height="20" viewBox="0 0 20 20" fill="none" xmlns="http://www.w3.org/2000/svg">
<path d="M12.5 4.58333V15.4167C12.5 15.8039 12.5 15.9975 12.532 16.1585C12.6635 16.8196 13.18 17.3368 13.8411 17.4683C14.0021 17.5003 14.1957 17.5003 14.5829 17.5003C14.9701 17.5003 15.1645 17.5003 15.3255 17.4683C15.9867 17.3368 16.5034 16.8196 16.6349 16.1585C16.6666 15.9989 16.6666 15.8073 16.6666 15.4269V4.57314C16.6666 4.19271 16.6666 4.00072 16.6349 3.84115C16.5034 3.17999 15.9863 2.66354 15.3251 2.53202C15.1641 2.5 14.9705 2.5 14.5833 2.5C14.1961 2.5 14.0021 2.5 13.8411 2.53202C13.18 2.66354 12.6635 3.17999 12.532 3.84115C12.5 4.00214 12.5 4.19612 12.5 4.58333Z" fill="white"/>
<path d="M3.33331 4.58333V15.4167C3.33331 15.8039 3.33331 15.9975 3.36534 16.1585C3.49685 16.8196 4.01331 17.3368 4.67446 17.4683C4.83546 17.5003 5.02907 17.5003 5.41628 17.5003C5.80348 17.5003 5.99784 17.5003 6.15883 17.4683C6.81998 17.3368 7.33673 16.8196 7.46824 16.1585C7.49998 15.9989 7.49998 15.8073 7.49998 15.4269V4.57314C7.49998 4.19271 7.49998 4.00072 7.46824 3.84115C7.33673 3.17999 6.81961 2.66354 6.15846 2.53202C5.99746 2.5 5.80386 2.5 5.41665 2.5C5.02943 2.5 4.83546 2.5 4.67446 2.53202C4.01331 2.66354 3.49685 3.17999 3.36534 3.84115C3.33331 4.00214 3.33331 4.19612 3.33331 4.58333Z" fill="white"/>
<path d="M12.5 4.58333V15.4167C12.5 15.8039 12.5 15.9975 12.532 16.1585C12.6635 16.8196 13.18 17.3368 13.8411 17.4683C14.0021 17.5003 14.1957 17.5003 14.5829 17.5003C14.9701 17.5003 15.1645 17.5003 15.3255 17.4683C15.9867 17.3368 16.5034 16.8196 16.6349 16.1585C16.6666 15.9989 16.6666 15.8073 16.6666 15.4269V4.57314C16.6666 4.19271 16.6666 4.00072 16.6349 3.84115C16.5034 3.17999 15.9863 2.66354 15.3251 2.53202C15.1641 2.5 14.9705 2.5 14.5833 2.5C14.1961 2.5 14.0021 2.5 13.8411 2.53202C13.18 2.66354 12.6635 3.17999 12.532 3.84115C12.5 4.00214 12.5 4.19612 12.5 4.58333Z" stroke="white" stroke-width="2" stroke-linecap="round" stroke-linejoin="round"/>
<path d="M3.33331 4.58333V15.4167C3.33331 15.8039 3.33331 15.9975 3.36534 16.1585C3.49685 16.8196 4.01331 17.3368 4.67446 17.4683C4.83546 17.5003 5.02907 17.5003 5.41628 17.5003C5.80348 17.5003 5.99784 17.5003 6.15883 17.4683C6.81998 17.3368 7.33673 16.8196 7.46824 16.1585C7.49998 15.9989 7.49998 15.8073 7.49998 15.4269V4.57314C7.49998 4.19271 7.49998 4.00072 7.46824 3.84115C7.33673 3.17999 6.81961 2.66354 6.15846 2.53202C5.99746 2.5 5.80386 2.5 5.41665 2.5C5.02943 2.5 4.83546 2.5 4.67446 2.53202C4.01331 2.66354 3.49685 3.17999 3.36534 3.84115C3.33331 4.00214 3.33331 4.19612 3.33331 4.58333Z" stroke="white" stroke-width="2" stroke-linecap="round" stroke-linejoin="round"/>
</svg>
